<?xml version="1.0" encoding="utf-8"?>
<!-- Generator: Adobe Illustrator 18.0.0, SVG Export Plug-In . SVG Version: 6.00 Build 0)  -->
<!DOCTYPE svg PUBLIC "-//W3C//DTD SVG 1.1//EN" "http://www.w3.org/Graphics/SVG/1.1/DTD/svg11.dtd">
<svg version="1.1" id="Layer_1" xmlns="http://www.w3.org/2000/svg" xmlns:xlink="http://www.w3.org/1999/xlink" x="0px" y="0px"
	 viewBox="0 0 482 144.3" enable-background="new 0 0 482 144.3" xml:space="preserve">
<g>
	<polygon points="450.3,30.8 450.3,42 463.4,42 437.6,99.4 417.1,50.4 410.8,64.4 437.2,127.6 480.8,30.8 	"/>
	<polygon points="266.4,24.8 222.8,121.6 253.4,121.6 253.4,110.4 240.2,110.4 266,53 286.5,102 292.8,88 	"/>
	<path d="M33.2,66.5l26.4,51.7H46.6L25.5,76.8l-10.4,14v27.4H2.9V34.3h12.1v38l28-38h14L33.2,66.5z"/>
	<path d="M135.4,72.3c-1.1,3.4-2.7,6.5-4.8,9.3c-2.1,2.8-4.7,5.1-7.7,7c-0.2,0.2-0.3,0.3-0.6,0.3c-0.2,0.1-0.4,0.2-0.6,0.3
		l14.8,29.1h-12.9l-12.9-25.3c-0.9,0.2-1.8,0.3-2.7,0.3c-0.9,0.1-1.9,0.1-3,0.1h-15v24.9H77.6V34.2h27.3c3.4,0,6.7,0.4,9.7,1.3
		c3,0.9,5.8,2.1,8.3,3.6c6.2,3.9,10.3,9.4,12.5,16.4c0.1,0.4,0.2,0.7,0.2,1c0.1,0.3,0.2,0.6,0.3,1v0.6c0.2,0.4,0.2,0.8,0.3,1.3
		c0,0.5,0.1,0.9,0.2,1.4v0.1c0.1,0.5,0.1,0.9,0.1,1.4s0,1,0,1.5v0.1v0.2c0,0.5,0,0.9,0,1.4c0,0.5,0,0.9-0.1,1.4v0.2
		c-0.1,0.5-0.1,0.9-0.2,1.3c0,0.4-0.1,0.9-0.3,1.3v0.5C135.7,71,135.5,71.7,135.4,72.3z M106.4,82.8c2.5,0,4.8-0.5,6.9-1.6
		c2.1-1.1,3.9-2.5,5.4-4.3c1.5-1.8,2.7-3.8,3.7-6c0.9-2.3,1.4-4.6,1.4-7.1c0-2.4-0.5-4.7-1.4-7s-2.1-4.3-3.7-6
		c-1.5-1.7-3.3-3.1-5.4-4.2c-2.1-1.1-4.4-1.6-6.9-1.6H90v37.8H106.4z"/>
	<path d="M166.8,106h37.4v12h-49.5V34.4h48.7v11.8h-36.5v13.2v6.8v8.3h32.9v11.5h-32.9V106z"/>
	<path d="M308.9,34.3h53.6v11.8h-20.7v72.1h-12.1V46.1h-20.7V34.3z"/>
	<path d="M380.6,34.3h12.3v84h-12.3V34.3z"/>
</g>
</svg>
