<svg width="121" height="125" viewBox="0 0 121 125" fill="none" xmlns="http://www.w3.org/2000/svg">
<path d="M7.79097 34.1165C15.389 27.1583 26.2531 26.0116 34.9195 30.4365C35.3696 30.6663 35.1984 31.3059 34.693 31.3059H31.9871C31.7618 31.3059 31.5642 31.4567 31.5048 31.6742L31.4043 32.0423L29.4003 39.3839C29.3409 39.6014 29.1434 39.7522 28.9179 39.7522H22.2003C21.9506 39.7522 21.741 39.5673 21.6919 39.3224C21.0147 35.9434 17.9799 33.4173 14.3701 33.4173C10.2695 33.4175 6.90837 36.6801 6.90816 40.7493C6.90818 44.3863 9.66224 47.3317 13.1402 47.947C13.3763 47.9888 13.5606 48.1809 13.577 48.4201L13.702 50.243C13.7021 50.2437 13.7014 50.2444 13.7006 50.2444C13.6998 50.2444 13.6992 50.2451 13.6993 50.2459L13.7851 51.5022L14.2841 58.7952L15.2109 72.3743L15.2426 72.8399C15.2605 73.1023 15.4785 73.3059 15.7415 73.3059H32.573C33.101 73.3059 33.2476 73.9751 32.7559 74.1676C23.7865 77.6789 13.1959 75.5536 6.30074 68.0247C-2.65122 58.2497 -1.9839 43.0685 7.79097 34.1165ZM26.062 54.2795C26.0622 54.2795 26.0625 54.2798 26.0625 54.2801C26.0625 54.2803 26.0627 54.2806 26.0629 54.2806L37.3996 56.1604C37.6537 56.2025 37.8342 56.4307 37.8167 56.6877L36.8501 70.839C36.8322 71.1013 36.6142 71.305 36.3513 71.305H17.6134C17.3505 71.305 17.1325 71.1014 17.1146 70.8391L15.9111 53.252C15.8892 52.9307 16.1723 52.6727 16.4902 52.7244L26.062 54.2795ZM39.0992 33.3059C39.2156 33.3059 39.3284 33.3464 39.4175 33.4212C40.2143 34.0906 40.9774 34.8186 41.6992 35.6067C50.651 45.3818 49.9838 60.5629 40.2089 69.5149C40.0538 69.657 39.8972 69.7964 39.7393 69.9334C39.4114 70.2177 38.9165 69.9595 38.9461 69.5266L40.9062 40.8196L40.9428 40.2865C40.9626 39.9975 40.7336 39.7522 40.444 39.7522H32.0268C31.6971 39.7522 31.4576 39.4386 31.5445 39.1205L33.0312 33.6743C33.0906 33.4568 33.2882 33.3059 33.5136 33.3059H39.0992ZM38.0228 53.6814C38.0027 53.9759 37.7333 54.1889 37.4421 54.1406L28.4233 52.6437C28.131 52.5952 27.9447 52.3046 28.0228 52.0187L30.7256 42.1205C30.7849 41.9031 30.9825 41.7522 31.2079 41.7522H38.3025C38.5921 41.7522 38.8211 41.9974 38.8014 42.2863L38.0228 53.6814ZM25.9443 52.0423C25.9154 52.1467 25.8125 52.2127 25.7055 52.1953L16.1201 50.6372C15.8907 50.5999 15.7173 50.4095 15.7015 50.1777L15.5576 48.0681C15.5576 48.0679 15.5578 48.0677 15.5581 48.0677C15.5583 48.0677 15.5585 48.0674 15.5585 48.0672L15.4863 46.9993L15.2529 43.5872L15.1643 42.2862C15.1446 41.9974 15.3736 41.7522 15.6631 41.7522H28.099C28.4288 41.7522 28.6682 42.0658 28.5814 42.3839L25.9443 52.0423ZM14.3701 35.4173C14.6216 35.4173 14.8692 35.4342 15.1113 35.4661C15.676 35.5406 16.2122 35.6991 16.707 35.928C16.8441 35.9914 16.9779 36.0602 17.1084 36.1341C17.6756 36.4556 18.1765 36.8744 18.5898 37.3655C18.6889 37.4833 18.7834 37.6049 18.872 37.7307C18.9424 37.8307 19.0098 37.9327 19.0732 38.0374C19.1222 38.1182 19.1682 38.2009 19.2128 38.2845C19.2593 38.3713 19.3031 38.4596 19.3447 38.5491C19.5186 38.9232 19.6504 39.3194 19.7324 39.7327C19.7341 39.7414 19.7281 39.7493 19.7192 39.7493H13.5207C13.2311 39.7493 13.0021 39.9945 13.0219 40.2834L13.0351 40.4768L13.0585 40.8196L13.3935 45.722C13.4019 45.845 13.2918 45.9424 13.1718 45.9143C13.1092 45.8997 13.0471 45.8832 12.9853 45.8665C12.8143 45.8203 12.6464 45.7674 12.4824 45.7063C12.1842 45.5954 11.898 45.4611 11.6269 45.305C11.4234 45.1878 11.2286 45.0583 11.0429 44.9182C10.5054 44.5128 10.0478 44.0155 9.69527 43.4534C9.54532 43.2142 9.41525 42.9632 9.30562 42.7024C9.25809 42.5894 9.21319 42.4752 9.17378 42.3587C9.10003 42.1405 9.04063 41.9166 8.99702 41.6878C8.98248 41.6115 8.96997 41.5346 8.95894 41.4573C8.92588 41.2255 8.90816 40.9889 8.90816 40.7493C8.90823 39.7435 9.19573 38.7996 9.69527 37.9934C9.78612 37.8468 9.88375 37.7047 9.98824 37.5677C10.0927 37.4306 10.204 37.2987 10.3212 37.1721C10.3797 37.109 10.4394 37.0469 10.5009 36.9866C10.6244 36.8655 10.7537 36.7501 10.8886 36.6409C11.0907 36.4774 11.305 36.3278 11.5302 36.1936C12.2056 35.7913 12.9786 35.5281 13.8085 35.4456C13.9931 35.4272 14.1804 35.4173 14.3701 35.4173Z" fill="#FF3B3B"/>
<path d="M41.7913 108.438C39.0391 104.793 37.5134 100.192 37.7889 95.2752C38.0825 90.0383 40.3669 85.3861 43.8648 82.0093C44.0459 82.1922 44.2969 82.3057 44.5745 82.3058L44.5911 82.306C45.1431 82.306 45.591 81.8583 45.5914 81.3064C45.5914 81.0732 45.5103 80.8593 45.3765 80.6892C49.0728 77.7727 53.8067 76.1407 58.8772 76.425C62.924 76.6519 66.621 78.0685 69.6509 80.314C68.7473 80.7898 67.9785 81.4967 67.4293 82.3707C66.7125 83.5118 66.4129 84.8668 66.5813 86.2035L66.5819 86.2042C66.6804 87.0512 66.0196 87.8053 65.1593 87.8058L64.5247 87.8057C62.6259 87.8059 60.972 89.1319 60.6104 91.0111L60.2617 92.7775C60.1544 93.3193 60.5061 93.8461 61.0479 93.9534C61.5895 94.0605 62.1151 93.7074 62.2224 93.1658L62.5732 91.4001L62.5739 91.3925C62.7487 90.476 63.5604 89.8057 64.5254 89.8056L65.1586 89.8057C67.231 89.8055 68.8025 87.9932 68.5681 85.9741L68.5688 85.9734L68.5675 85.9624L68.5391 85.6312C68.5075 84.8598 68.7102 84.0935 69.1236 83.4353C69.5961 82.6833 70.3154 82.1191 71.158 81.8384L71.1594 81.837L71.3896 81.7611C75.5813 85.6706 78.0718 91.343 77.726 97.5132C77.1076 108.541 67.6666 116.981 56.6384 116.363C52.56 116.134 48.8359 114.698 45.7927 112.422L59.4086 107.598C59.4908 107.569 59.5668 107.53 59.6358 107.483C59.8679 107.363 60.0861 107.209 60.2824 107.013C60.867 106.428 61.0857 105.651 61.0906 104.88C61.0953 104.114 60.8944 103.284 60.5626 102.456C59.8971 100.794 58.629 98.9461 56.9486 97.2656C55.2683 95.5854 53.421 94.3181 51.7597 93.6526C50.9309 93.3207 50.1013 93.1194 49.3359 93.124C48.5643 93.1288 47.7863 93.3469 47.2012 93.9318C46.8703 94.2628 46.6602 94.6565 46.5362 95.075L41.7913 108.438ZM73.5747 89.6395C73.575 90.1914 74.0231 90.6389 74.575 90.6391L74.5916 90.6393C75.1438 90.6392 75.5912 90.1912 75.5912 89.639C75.5912 89.0867 75.1438 88.6387 74.5916 88.6387L74.575 88.6385C74.0229 88.6386 73.5747 89.0873 73.5747 89.6395ZM61.9094 79.639C61.9094 80.1913 62.3567 80.6393 62.909 80.6393L62.9249 80.6388C63.4769 80.6387 63.925 80.1913 63.9252 79.6392C63.9252 79.087 63.4777 78.6391 62.9256 78.6389L62.909 78.6387C62.3567 78.6387 61.9094 79.0867 61.9094 79.639ZM65.242 101.306C65.2424 101.858 65.6903 102.306 66.2423 102.306L67.5248 102.306C69.1924 102.306 70.6247 101.091 70.8921 99.4444L70.8935 99.4458C71.0509 98.5502 71.9984 98.0195 72.8403 98.352L74.2017 98.8995C74.7139 99.1056 75.2962 98.8581 75.5026 98.3462C75.7087 97.834 75.4613 97.2503 74.9493 97.0439L73.5817 96.4943L73.5755 96.4921L73.385 96.4228C71.4122 95.7723 69.2882 97.0286 68.924 99.0988L68.9203 99.1174C68.8136 99.7952 68.2183 100.305 67.5255 100.306L66.2417 100.306C65.6895 100.306 65.242 100.754 65.242 101.306ZM51.9091 87.9716C51.9091 88.5239 52.3565 88.9719 52.9088 88.9719C53.4608 88.9717 53.9089 88.5243 53.9091 87.9723L53.9087 86.6885C53.9089 85.9841 54.4283 85.3882 55.0837 85.2946C55.094 85.2931 55.1045 85.292 55.1148 85.2901C57.2523 84.9143 58.5218 82.662 57.7213 80.6374L57.7193 80.6325L57.1696 79.2655C56.9633 78.7534 56.3805 78.5051 55.8683 78.7111C55.3563 78.9174 55.108 79.5002 55.3139 80.0123L55.8637 81.3794C56.1917 82.2199 55.662 83.1633 54.7684 83.3206L54.7684 83.3219C53.1074 83.5758 51.9089 85.0379 51.9088 86.6892L51.9091 87.9716ZM51.9491 102.266C50.413 100.73 49.3209 99.1015 48.778 97.7463C48.5062 97.0675 48.3903 96.5033 48.3928 96.0794C48.3953 95.6615 48.5098 95.4533 48.6164 95.3466C48.7231 95.2402 48.9306 95.1268 49.3477 95.1241C49.7716 95.1216 50.3367 95.237 51.0156 95.5089C52.3707 96.0518 53.9991 97.1434 55.5351 98.6794C57.0711 100.215 58.162 101.844 58.7049 103.199C58.9768 103.878 59.0934 104.443 59.0908 104.867C59.0882 105.284 58.9744 105.492 58.8679 105.599C58.7612 105.705 58.5531 105.819 58.1352 105.821C57.7113 105.824 57.1469 105.708 56.468 105.436C55.1129 104.893 53.4851 103.802 51.9491 102.266ZM43.2872 110.2L47.2121 99.1493C47.9246 100.631 49.0738 102.219 50.535 103.68C52.0011 105.146 53.5943 106.298 55.0802 107.01L44.0194 110.927C43.7694 110.691 43.5247 110.449 43.2872 110.2Z" fill="#FF3B3B"/>
<path d="M110.928 19.0897C119.699 33.1458 115.416 51.6517 101.36 60.4233C87.3036 69.1948 68.7976 64.911 60.026 50.8551C51.2545 36.7991 55.5382 18.2932 69.5942 9.52151C83.6503 0.75 102.156 5.03371 110.928 19.0897ZM99.7147 48.2158C101.152 47.5755 101.616 45.7262 100.591 44.4978L93.1124 35.3501L93.8152 33.9828L93.8167 33.9801C95.6276 30.5092 95.7347 26.3983 94.1444 22.8261L90.8675 15.4656C91.4912 15.1879 91.7744 14.45 91.4967 13.8263C91.2189 13.2028 90.4811 12.9195 89.8574 13.1972L66.0422 23.8005C65.4186 24.0783 65.1354 24.8161 65.4131 25.4398C65.6908 26.0635 66.4286 26.3466 67.0523 26.069L70.3294 33.4285C71.1142 35.1934 72.2861 36.7596 73.7588 38.0094C75.2315 39.2591 76.967 40.1613 78.836 40.6485L78.8378 40.6498L80.3264 41.0414L82.1224 52.7297C82.1803 53.0947 82.3219 53.4413 82.5352 53.743C82.7485 54.0447 83.028 54.2937 83.3528 54.4699C83.6775 54.6461 84.0384 54.7447 84.4076 54.7591C84.7768 54.7734 85.1445 54.7028 85.4819 54.5523L99.7147 48.2158ZM81.3241 38.7386L79.4684 38.248L79.4638 38.2462C77.9552 37.8531 76.5544 37.1253 75.3657 36.1166C74.1771 35.1079 73.231 33.8439 72.5976 32.4193L69.8252 26.1934L71.9573 25.2434L74.6228 31.232C75.8952 34.0897 78.166 36.381 81.0079 37.6975L82.3137 38.2985L81.3241 38.7386ZM83.821 37.6269L81.5251 36.5699C78.9607 35.388 76.9088 33.3122 75.7576 30.7265L73.091 24.7387L78.8977 22.1537L85.4614 36.8964L83.821 37.6269ZM88.5037 25.0516C89.6523 27.6348 89.8245 30.5471 88.9875 33.2474L88.2365 35.6606L86.5959 36.3919L80.0313 21.6491L85.8381 19.064L88.5037 25.0516ZM84.5605 52.2448L82.802 40.7988L91.2757 37.0254L98.6059 45.9917L84.5605 52.2448ZM92.7743 28.3654C92.7288 29.9236 92.3322 31.4516 91.6137 32.8351L91.6107 32.8405L90.7322 34.5496L89.7436 34.9899L90.1713 33.6171C91.0994 30.6357 90.9108 27.4038 89.6385 24.5462L86.9719 18.5584L89.1038 17.6093L91.8762 23.8353C92.5129 25.2583 92.8198 26.807 92.7743 28.3654Z" fill="#FF3B3B"/>
</svg>
