<svg width="188" height="194" viewBox="0 0 188 194" fill="none" xmlns="http://www.w3.org/2000/svg">
<path d="M101.095 6.89587C82.6946 -16.3041 70.4279 24.5625 66.5946 47.8959C58.9279 44.8959 39.5946 38.3959 23.5946 36.3959C-4.00543 34.3959 20.0946 67.2292 35.5946 83.8959C30.7612 85.7292 18.1946 91.4959 6.59457 99.8959C-15.0054 119.496 21.5946 126.729 42.5946 127.896C39.7612 133.729 33.3946 148.196 30.5946 159.396C28.5946 186.596 59.4279 170.729 75.0946 159.396C76.0946 164.729 80.0946 187.896 86.5946 191.896C99.9659 200.124 112.095 179.396 119.095 165.896C120.5 167.5 136.595 183.396 146.095 184.896C170.747 188.788 162.428 157.563 156.095 139.396C161.761 139.563 175.095 138.696 183.095 133.896C196.295 125.896 177.595 107.896 166.595 99.8959C171.095 97.3959 181.295 90.0959 186.095 80.8959C194.095 66.0959 169.428 60.7292 156.095 59.8959C157.595 54.0625 160.595 39.6959 160.595 28.8959C156.595 6.49587 126.928 28.5625 112.595 42.3959C111.761 34.8959 108.295 17.2959 101.095 6.89587Z" fill="#0071D2"/>
</svg>
